<svg width="211" height="219" fill="none" xmlns="http://www.w3.org/2000/svg"><path d="M210.457 109.017c0-21.561-6.172-42.639-17.734-60.567-11.563-17.927-27.997-31.9-47.225-40.152-19.228-8.25-40.386-10.41-60.799-6.203C64.287 6.3 45.537 16.685 30.821 31.93 16.104 47.177 6.082 66.602 2.022 87.75c-4.06 21.147-1.976 43.067 5.988 62.987 7.965 19.92 21.452 36.946 38.757 48.925 17.304 11.979 37.65 18.373 58.461 18.373a102.04 102.04 0 0 0 40.271-8.295c12.768-5.478 24.369-13.509 34.14-23.632 9.772-10.124 17.523-22.142 22.811-35.369a112.448 112.448 0 0 0 8.007-41.721Z" fill="#B7ECB1"/><path d="M45.94 84.829h5.715l-16.962 41.748h-1.301L16.09 84.829h5.787l12.067 29.194L45.94 84.829ZM68.397 109.942v11.673c0 .934.307 1.401.922 1.401a6.262 6.262 0 0 0 2.96-1.464v3.311a17.329 17.329 0 0 1-2.858 1.612 6.088 6.088 0 0 1-2.264.435c-2.233 0-3.554-.912-3.964-2.737-2 1.702-4.5 2.646-7.088 2.674a6.07 6.07 0 0 1-2.488-.454 6.234 6.234 0 0 1-2.111-1.435 6.397 6.397 0 0 1-1.397-2.173 6.569 6.569 0 0 1-.437-2.571 6.795 6.795 0 0 1 1.793-4.627 12.125 12.125 0 0 1 5.121-3.183l6.69-2.388v-1.454c0-3.289-1.589-4.945-4.764-4.945-2.855 0-5.634 1.528-8.338 4.585v-5.996c2.049-2.47 4.971-3.707 8.768-3.714a9.924 9.924 0 0 1 6.843 2.334 7.288 7.288 0 0 1 1.546 1.985c.44.76.74 1.598.881 2.472.157 1.555.219 3.118.185 4.68v-.021Zm-5.122 11.068v-8.129l-3.503 1.401a11.713 11.713 0 0 0-3.78 2.218 4.079 4.079 0 0 0-1.08 2.775c0 1.035.387 2.03 1.08 2.775.36.358.786.636 1.253.818.466.183.963.265 1.462.244a6.38 6.38 0 0 0 2.515-.582 6.556 6.556 0 0 0 2.104-1.541M82.239 84.829h-5.224v41.578h5.224V84.829ZM122.438 84.829h5.367v41.567h-5.767V94.051l-12.343 16.066h-1.065L96.154 94.051v32.345h-5.747V84.829h5.44l13.336 17.075 13.255-17.075ZM152.338 109.944v11.673c0 .934.307 1.401.922 1.401a6.206 6.206 0 0 0 2.96-1.465v3.312a17.41 17.41 0 0 1-2.857 1.613 6.057 6.057 0 0 1-2.254.435c-2.24 0-3.561-.913-3.964-2.738a11.165 11.165 0 0 1-7.099 2.674 6.07 6.07 0 0 1-2.487-.455 6.244 6.244 0 0 1-2.112-1.434 6.381 6.381 0 0 1-1.396-2.173 6.547 6.547 0 0 1-.437-2.57 6.791 6.791 0 0 1 1.792-4.627 12.117 12.117 0 0 1 5.122-3.184l6.688-2.388v-1.454c0-3.289-1.587-4.945-4.763-4.945-2.854 0-5.63 1.528-8.327 4.585v-5.996c2.048-2.47 4.967-3.707 8.758-3.714a9.92 9.92 0 0 1 6.863 2.313 8.078 8.078 0 0 1 2.427 4.457c.157 1.555.219 3.118.185 4.68h-.021Zm-5.101 11.047v-8.129l-3.503 1.401a11.712 11.712 0 0 0-3.78 2.218 4.077 4.077 0 0 0-1.106 2.764 4.084 4.084 0 0 0 1.055 2.786c.36.358.786.636 1.252.818.467.182.964.265 1.462.243a6.362 6.362 0 0 0 2.516-.581 6.562 6.562 0 0 0 2.104-1.541M166.439 99.028v6.282l.287-.477c2.527-4.245 5.057-6.367 7.59-6.367 1.967 0 4.016 1.029 6.146 3.088l-2.755 4.764c-1.813-1.782-3.503-2.674-5.05-2.674a5.284 5.284 0 0 0-2.486.692 5.481 5.481 0 0 0-1.898 1.802 9.64 9.64 0 0 0-1.854 5.922v14.347h-5.255V99.028h5.275ZM186.84 87.507c.41-.007.816.072 1.196.23.38.159.726.394 1.017.693.297.29.533.64.692 1.03.159.388.237.808.23 1.23.003.422-.077.84-.235 1.23-.159.388-.393.74-.687 1.03a3.077 3.077 0 0 1-1.013.711c-.38.164-.788.247-1.2.245-.399 0-.793-.087-1.158-.253a2.888 2.888 0 0 1-.962-.713 3.132 3.132 0 0 1-.683-1.027 3.192 3.192 0 0 1 .004-2.428c.158-.382.389-.726.679-1.013.27-.303.597-.546.962-.712a2.802 2.802 0 0 1 1.158-.253Zm-2.581 11.514h5.255V126.4h-5.225l-.03-27.38Z" fill="#fff"/></svg>